<svg xmlns="http://www.w3.org/2000/svg" xmlns:xlink="http://www.w3.org/1999/xlink" width="339pt" height="353pt" viewBox="0.00 0.00 339.00 352.80">
<g id="graph0" class="graph" transform="scale(1 1) rotate(0) translate(4 348.8)">
<title>G</title>
<polygon fill="white" stroke="none" points="-4,4 -4,-348.8 335,-348.8 335,4 -4,4"/>
<g id="clust1" class="cluster">
<title>cluster_vert1</title>
</g>
<g id="clust4" class="cluster">
<title>cluster_vert2</title>
</g>
<!-- track_0 -->
<g id="node1" class="node">
<title>track_0</title>
<polygon fill="none" stroke="black" points="61,-299.8 7,-299.8 7,-263.8 61,-263.8 61,-299.8"/>
<text text-anchor="middle" x="34" y="-277.6" font-family="Times,serif" font-size="14.00" fill="lightgreen">S</text>
<text text-anchor="middle" x="3.5" y="-251.2" font-family="Times,serif" font-size="14.00" fill="lightgreen">0</text>
</g>
<!-- track_1 -->
<g id="node2" class="node">
<title>track_1</title>
<polygon fill="none" stroke="black" points="151,-328.8 97,-328.8 97,-292.8 151,-292.8 151,-328.8"/>
<text text-anchor="middle" x="93.5" y="-280.2" font-family="Times,serif" font-size="14.00">1</text>
</g>
<!-- track_0&#45;&gt;track_1 -->
<g id="edge6" class="edge">
<title>track_0-&gt;track_1</title>
<path fill="none" stroke="black" d="M61.4,-290.5C69.06,-293.02 77.57,-295.83 85.76,-298.53"/>
<polygon fill="black" stroke="black" points="84.59,-301.83 95.18,-301.63 86.78,-295.18 84.59,-301.83"/>
</g>
<!-- track_3 -->
<g id="node4" class="node">
<title>track_3</title>
<polygon fill="none" stroke="black" points="61,-217.8 7,-217.8 7,-181.8 61,-181.8 61,-217.8"/>
<text text-anchor="start" x="26.22" y="-196.6" font-family="Times,serif" font-size="14.00" fill="orange">T</text>
<text text-anchor="start" x="34.78" y="-196.6" font-family="Times,serif" baseline-shift="sub" font-size="14.00" fill="orange">2</text>
<text text-anchor="middle" x="3.5" y="-169.2" font-family="Times,serif" font-size="14.00" fill="orange">3</text>
</g>
<!-- track_0&#45;&gt;track_3 -->
<g id="edge7" class="edge">
<title>track_0-&gt;track_3</title>
<path fill="none" stroke="black" stroke-dasharray="1,5" d="M34,-263.37C34,-252.05 34,-240.72 34,-229.39"/>
<polygon fill="black" stroke="black" points="37.5,-229.57 34,-219.57 30.5,-229.57 37.5,-229.57"/>
</g>
<!-- track_2 -->
<g id="node3" class="node">
<title>track_2</title>
<polygon fill="none" stroke="black" points="151,-274.8 97,-274.8 97,-238.8 151,-238.8 151,-274.8"/>
<text text-anchor="start" x="116.22" y="-253.6" font-family="Times,serif" font-size="14.00" fill="orange">T</text>
<text text-anchor="start" x="124.78" y="-253.6" font-family="Times,serif" baseline-shift="sub" font-size="14.00" fill="orange">1</text>
<text text-anchor="middle" x="93.5" y="-226.2" font-family="Times,serif" font-size="14.00" fill="orange">2</text>
</g>
<!-- track_1&#45;&gt;track_2 -->
<g id="edge1" class="edge">
<title>track_1-&gt;track_2</title>
<path fill="none" stroke="black" d="M124,-292.31C124,-290.32 124,-288.33 124,-286.34"/>
<polygon fill="black" stroke="black" points="127.5,-286.45 124,-276.45 120.5,-286.45 127.5,-286.45"/>
</g>
<!-- track_2&#45;&gt;track_3 -->
<g id="edge2" class="edge">
<title>track_2-&gt;track_3</title>
<path fill="none" stroke="black" d="M96.62,-239.71C88.52,-234.47 79.48,-228.61 70.87,-223.03"/>
<polygon fill="black" stroke="black" points="72.97,-220.22 62.67,-217.72 69.16,-226.1 72.97,-220.22"/>
</g>
<!-- track_4 -->
<g id="node5" class="node">
<title>track_4</title>
<polygon fill="none" stroke="black" points="151,-52.8 97,-52.8 97,-16.8 151,-16.8 151,-52.8"/>
<text text-anchor="middle" x="93.5" y="-4.2" font-family="Times,serif" font-size="14.00">4</text>
</g>
<!-- track_3&#45;&gt;track_4 -->
<g id="edge8" class="edge">
<title>track_3-&gt;track_4</title>
<path fill="none" stroke="black" d="M38.95,-181.31C45.62,-153.32 61.18,-99.46 89,-61.8 89.07,-61.71 89.14,-61.61 89.21,-61.52"/>
<polygon fill="black" stroke="black" points="91.59,-64.1 95.72,-54.35 86.41,-59.4 91.59,-64.1"/>
</g>
<!-- track_5 -->
<g id="node6" class="node">
<title>track_5</title>
<polygon fill="none" stroke="black" points="151,-160.8 97,-160.8 97,-124.8 151,-124.8 151,-160.8"/>
<text text-anchor="start" x="116.22" y="-139.6" font-family="Times,serif" font-size="14.00" fill="orange">T</text>
<text text-anchor="start" x="124.78" y="-139.6" font-family="Times,serif" baseline-shift="sub" font-size="14.00" fill="orange">3</text>
<text text-anchor="middle" x="93.5" y="-112.2" font-family="Times,serif" font-size="14.00" fill="orange">5</text>
</g>
<!-- track_3&#45;&gt;track_5 -->
<g id="edge9" class="edge">
<title>track_3-&gt;track_5</title>
<path fill="none" stroke="black" stroke-dasharray="1,5" d="M61.4,-182.7C69.5,-177.46 78.54,-171.6 87.15,-166.02"/>
<polygon fill="black" stroke="black" points="88.86,-169.09 95.35,-160.71 85.05,-163.21 88.86,-169.09"/>
</g>
<!-- track_4&#45;&gt;track_5 -->
<g id="edge3" class="edge">
<title>track_4-&gt;track_5</title>
<path fill="none" stroke="black" stroke-dasharray="1,5" d="M96.64,-48.29C88.12,-53.98 79.72,-61.48 75,-70.8 67.77,-85.08 67.77,-92.52 75,-106.8 78.02,-112.77 82.56,-118 87.67,-122.47"/>
<polygon fill="black" stroke="black" points="85.36,-125.12 95.44,-128.39 89.6,-119.55 85.36,-125.12"/>
</g>
<!-- track_7 -->
<g id="node8" class="node">
<title>track_7</title>
<polygon fill="none" stroke="black" points="151,-106.8 97,-106.8 97,-70.8 151,-70.8 151,-106.8"/>
<text text-anchor="middle" x="93.5" y="-58.2" font-family="Times,serif" font-size="14.00">7</text>
</g>
<!-- track_4&#45;&gt;track_7 -->
<g id="edge4" class="edge">
<title>track_4-&gt;track_7</title>
<path fill="none" stroke="black" d="M124,-52.94C124,-54.93 124,-56.92 124,-58.91"/>
<polygon fill="black" stroke="black" points="120.5,-58.8 124,-68.8 127.5,-58.8 120.5,-58.8"/>
</g>
<!-- track_6 -->
<g id="node7" class="node">
<title>track_6</title>
<polygon fill="none" stroke="black" points="151,-214.8 97,-214.8 97,-178.8 151,-178.8 151,-214.8"/>
<text text-anchor="middle" x="93.5" y="-166.2" font-family="Times,serif" font-size="14.00">6</text>
</g>
<!-- track_5&#45;&gt;track_6 -->
<g id="edge5" class="edge">
<title>track_5-&gt;track_6</title>
<path fill="none" stroke="black" d="M124,-160.94C124,-162.93 124,-164.92 124,-166.91"/>
<polygon fill="black" stroke="black" points="120.5,-166.8 124,-176.8 127.5,-166.8 120.5,-166.8"/>
</g>
<!-- track_8 -->
<g id="node9" class="node">
<title>track_8</title>
<polygon fill="none" stroke="black" points="331,-160.8 277,-160.8 277,-124.8 331,-124.8 331,-160.8"/>
<text text-anchor="middle" x="273.5" y="-112.2" font-family="Times,serif" font-size="14.00">8</text>
</g>
<!-- track_5&#45;&gt;track_8 -->
<g id="edge10" class="edge">
<title>track_5-&gt;track_8</title>
<path fill="none" stroke="black" stroke-dasharray="1,5" d="M151.26,-142.8C181.37,-142.8 230.96,-142.8 265.21,-142.8"/>
<polygon fill="black" stroke="black" points="265.11,-146.3 275.11,-142.8 265.11,-139.3 265.11,-146.3"/>
</g>
<!-- track_9 -->
<g id="node10" class="node">
<title>track_9</title>
<polygon fill="none" stroke="black" points="241,-214.8 187,-214.8 187,-178.8 241,-178.8 241,-214.8"/>
<text text-anchor="middle" x="183.5" y="-166.2" font-family="Times,serif" font-size="14.00">9</text>
</g>
<!-- track_6&#45;&gt;track_9 -->
<g id="edge11" class="edge">
<title>track_6-&gt;track_9</title>
<path fill="none" stroke="black" d="M151.4,-196.8C158.89,-196.8 167.18,-196.8 175.2,-196.8"/>
<polygon fill="black" stroke="black" points="175.1,-200.3 185.1,-196.8 175.1,-193.3 175.1,-200.3"/>
</g>
<!-- track_7&#45;&gt;track_8 -->
<g id="edge12" class="edge">
<title>track_7-&gt;track_8</title>
<path fill="none" stroke="black" d="M151.26,-96.77C181.5,-105.94 231.39,-121.08 265.66,-131.47"/>
<polygon fill="black" stroke="black" points="264.59,-134.81 275.18,-134.36 266.63,-128.11 264.59,-134.81"/>
</g>
<!-- track_9&#45;&gt;track_8 -->
<g id="edge13" class="edge">
<title>track_9-&gt;track_8</title>
<path fill="none" stroke="black" d="M241.4,-180.6C249.41,-175.69 258.34,-170.2 266.87,-164.97"/>
<polygon fill="black" stroke="black" points="268.63,-168 275.33,-159.78 264.97,-162.03 268.63,-168"/>
</g>
<!-- track_10 -->
<g id="node11" class="node">
<title>track_10</title>
<polygon fill="none" stroke="black" points="331,-214.8 277,-214.8 277,-178.8 331,-178.8 331,-214.8"/>
<text text-anchor="middle" x="263.19" y="-166.2" font-family="Times,serif" font-size="14.00">10,G</text>
</g>
<!-- track_9&#45;&gt;track_10 -->
<g id="edge14" class="edge">
<title>track_9-&gt;track_10</title>
<path fill="none" stroke="black" stroke-dasharray="1,5" d="M241.4,-196.8C248.89,-196.8 257.18,-196.8 265.2,-196.8"/>
<polygon fill="black" stroke="black" points="265.1,-200.3 275.1,-196.8 265.1,-193.3 265.1,-200.3"/>
</g>
</g>
</svg>