<svg xmlns="http://www.w3.org/2000/svg" xmlns:xlink="http://www.w3.org/1999/xlink" width="385pt" height="293pt" viewBox="0.00 0.00 385.23 292.80">
<g id="graph0" class="graph" transform="scale(1 1) rotate(0) translate(4 288.8)">
<title>G</title>
<polygon fill="white" stroke="none" points="-4,4 -4,-288.8 381.23,-288.8 381.23,4 -4,4"/>
<g id="clust1" class="cluster">
<title>cluster_vert1</title>
</g>
<g id="clust7" class="cluster">
<title>cluster_vert2</title>
</g>
<g id="clust13" class="cluster">
<title>cluster_vert3</title>
</g>
<!-- track_0 -->
<g id="node1" class="node">
<title>track_0</title>
<polygon fill="none" stroke="black" points="91.23,-52.8 37.23,-52.8 37.23,-16.8 91.23,-16.8 91.23,-52.8"/>
<text text-anchor="middle" x="64.23" y="-30.6" font-family="Times,serif" font-size="14.00" fill="lightgreen">S</text>
<text text-anchor="middle" x="33.73" y="-4.2" font-family="Times,serif" font-size="14.00" fill="lightgreen">0</text>
</g>
<!-- track_1 -->
<g id="node2" class="node">
<title>track_1</title>
<polygon fill="none" stroke="black" points="91.23,-106.8 37.23,-106.8 37.23,-70.8 91.23,-70.8 91.23,-106.8"/>
<text text-anchor="start" x="56.46" y="-85.6" font-family="Times,serif" font-size="14.00" fill="orange">T</text>
<text text-anchor="start" x="65.01" y="-85.6" font-family="Times,serif" baseline-shift="sub" font-size="14.00" fill="orange">1</text>
<text text-anchor="middle" x="33.73" y="-58.2" font-family="Times,serif" font-size="14.00" fill="orange">1</text>
</g>
<!-- track_0&#45;&gt;track_1 -->
<g id="edge1" class="edge">
<title>track_0-&gt;track_1</title>
<path fill="none" stroke="black" d="M64.23,-52.94C64.23,-54.93 64.23,-56.92 64.23,-58.91"/>
<polygon fill="black" stroke="black" points="60.73,-58.8 64.23,-68.8 67.73,-58.8 60.73,-58.8"/>
</g>
<!-- track_4 -->
<g id="node5" class="node">
<title>track_4</title>
<polygon fill="none" stroke="black" points="91.23,-268.8 37.23,-268.8 37.23,-232.8 91.23,-232.8 91.23,-268.8"/>
<text text-anchor="middle" x="26.93" y="-220.2" font-family="Times,serif" font-size="14.00">4,G</text>
</g>
<!-- track_0&#45;&gt;track_4 -->
<!-- track_5 -->
<g id="node6" class="node">
<title>track_5</title>
<polygon fill="none" stroke="black" points="181.23,-52.8 127.23,-52.8 127.23,-16.8 181.23,-16.8 181.23,-52.8"/>
<text text-anchor="start" x="146.46" y="-31.6" font-family="Times,serif" font-size="14.00" fill="orange">T</text>
<text text-anchor="start" x="155.01" y="-31.6" font-family="Times,serif" baseline-shift="sub" font-size="14.00" fill="orange">3</text>
<text text-anchor="middle" x="123.73" y="-4.2" font-family="Times,serif" font-size="14.00" fill="orange">5</text>
</g>
<!-- track_0&#45;&gt;track_5 -->
<g id="edge19" class="edge">
<title>track_0-&gt;track_5</title>
<path fill="none" stroke="black" stroke-dasharray="1,5" d="M91.64,-34.8C99.12,-34.8 107.42,-34.8 115.43,-34.8"/>
<polygon fill="black" stroke="black" points="115.34,-38.3 125.34,-34.8 115.34,-31.3 115.34,-38.3"/>
</g>
<!-- track_2 -->
<g id="node3" class="node">
<title>track_2</title>
<polygon fill="none" stroke="black" points="91.23,-160.8 37.23,-160.8 37.23,-124.8 91.23,-124.8 91.23,-160.8"/>
<text text-anchor="start" x="56.46" y="-139.6" font-family="Times,serif" font-size="14.00" fill="orange">T</text>
<text text-anchor="start" x="65.01" y="-139.6" font-family="Times,serif" baseline-shift="sub" font-size="14.00" fill="orange">2</text>
<text text-anchor="middle" x="33.73" y="-112.2" font-family="Times,serif" font-size="14.00" fill="orange">2</text>
</g>
<!-- track_1&#45;&gt;track_2 -->
<g id="edge2" class="edge">
<title>track_1-&gt;track_2</title>
<path fill="none" stroke="black" d="M64.23,-106.94C64.23,-108.93 64.23,-110.92 64.23,-112.91"/>
<polygon fill="black" stroke="black" points="60.73,-112.8 64.23,-122.8 67.73,-112.8 60.73,-112.8"/>
</g>
<!-- track_6 -->
<g id="node7" class="node">
<title>track_6</title>
<polygon fill="none" stroke="black" points="181.23,-106.8 127.23,-106.8 127.23,-70.8 181.23,-70.8 181.23,-106.8"/>
<text text-anchor="start" x="146.46" y="-85.6" font-family="Times,serif" font-size="14.00" fill="orange">T</text>
<text text-anchor="start" x="155.01" y="-85.6" font-family="Times,serif" baseline-shift="sub" font-size="14.00" fill="orange">4</text>
<text text-anchor="middle" x="123.73" y="-58.2" font-family="Times,serif" font-size="14.00" fill="orange">6</text>
</g>
<!-- track_1&#45;&gt;track_6 -->
<g id="edge22" class="edge">
<title>track_1-&gt;track_6</title>
<path fill="none" stroke="black" stroke-dasharray="1,5" d="M91.64,-88.8C99.12,-88.8 107.42,-88.8 115.43,-88.8"/>
<polygon fill="black" stroke="black" points="115.34,-92.3 125.34,-88.8 115.34,-85.3 115.34,-92.3"/>
</g>
<!-- track_3 -->
<g id="node4" class="node">
<title>track_3</title>
<polygon fill="none" stroke="black" points="91.23,-214.8 37.23,-214.8 37.23,-178.8 91.23,-178.8 91.23,-214.8"/>
<text text-anchor="middle" x="33.73" y="-166.2" font-family="Times,serif" font-size="14.00">3</text>
</g>
<!-- track_2&#45;&gt;track_3 -->
<g id="edge3" class="edge">
<title>track_2-&gt;track_3</title>
<path fill="none" stroke="black" d="M64.23,-160.94C64.23,-162.93 64.23,-164.92 64.23,-166.91"/>
<polygon fill="black" stroke="black" points="60.73,-166.8 64.23,-176.8 67.73,-166.8 60.73,-166.8"/>
</g>
<!-- track_3&#45;&gt;track_4 -->
<g id="edge4" class="edge">
<title>track_3-&gt;track_4</title>
<path fill="none" stroke="black" d="M64.23,-214.94C64.23,-216.93 64.23,-218.92 64.23,-220.91"/>
<polygon fill="black" stroke="black" points="60.73,-220.8 64.23,-230.8 67.73,-220.8 60.73,-220.8"/>
</g>
<!-- track_9 -->
<g id="node10" class="node">
<title>track_9</title>
<polygon fill="none" stroke="black" points="181.23,-268.8 127.23,-268.8 127.23,-232.8 181.23,-232.8 181.23,-268.8"/>
<text text-anchor="middle" x="123.73" y="-220.2" font-family="Times,serif" font-size="14.00">9</text>
</g>
<!-- track_4&#45;&gt;track_9 -->
<!-- track_5&#45;&gt;track_6 -->
<g id="edge6" class="edge">
<title>track_5-&gt;track_6</title>
<path fill="none" stroke="black" stroke-dasharray="1,5" d="M154.23,-52.94C154.23,-54.93 154.23,-56.92 154.23,-58.91"/>
<polygon fill="black" stroke="black" points="150.73,-58.8 154.23,-68.8 157.73,-58.8 150.73,-58.8"/>
</g>
<!-- track_10 -->
<g id="node11" class="node">
<title>track_10</title>
<polygon fill="none" stroke="black" points="271.23,-52.8 217.23,-52.8 217.23,-16.8 271.23,-16.8 271.23,-52.8"/>
<text text-anchor="middle" x="210.23" y="-4.2" font-family="Times,serif" font-size="14.00">10</text>
</g>
<!-- track_5&#45;&gt;track_10 -->
<g id="edge20" class="edge">
<title>track_5-&gt;track_10</title>
<path fill="none" stroke="black" d="M181.64,-34.8C189.12,-34.8 197.42,-34.8 205.43,-34.8"/>
<polygon fill="black" stroke="black" points="205.34,-38.3 215.34,-34.8 205.34,-31.3 205.34,-38.3"/>
</g>
<!-- track_7 -->
<g id="node8" class="node">
<title>track_7</title>
<polygon fill="none" stroke="black" points="181.23,-160.8 127.23,-160.8 127.23,-124.8 181.23,-124.8 181.23,-160.8"/>
<text text-anchor="start" x="146.46" y="-139.6" font-family="Times,serif" font-size="14.00" fill="orange">T</text>
<text text-anchor="start" x="155.01" y="-139.6" font-family="Times,serif" baseline-shift="sub" font-size="14.00" fill="orange">5</text>
<text text-anchor="middle" x="123.73" y="-112.2" font-family="Times,serif" font-size="14.00" fill="orange">7</text>
</g>
<!-- track_6&#45;&gt;track_7 -->
<g id="edge7" class="edge">
<title>track_6-&gt;track_7</title>
<path fill="none" stroke="black" d="M154.23,-106.94C154.23,-108.93 154.23,-110.92 154.23,-112.91"/>
<polygon fill="black" stroke="black" points="150.73,-112.8 154.23,-122.8 157.73,-112.8 150.73,-112.8"/>
</g>
<!-- track_11 -->
<g id="node12" class="node">
<title>track_11</title>
<polygon fill="none" stroke="black" points="271.23,-106.8 217.23,-106.8 217.23,-70.8 271.23,-70.8 271.23,-106.8"/>
<text text-anchor="start" x="236.46" y="-85.6" font-family="Times,serif" font-size="14.00" fill="orange">T</text>
<text text-anchor="start" x="245.01" y="-85.6" font-family="Times,serif" baseline-shift="sub" font-size="14.00" fill="orange">6</text>
<text text-anchor="middle" x="210.23" y="-58.2" font-family="Times,serif" font-size="14.00" fill="orange">11</text>
</g>
<!-- track_6&#45;&gt;track_11 -->
<!-- track_7&#45;&gt;track_2 -->
<g id="edge23" class="edge">
<title>track_7-&gt;track_2</title>
<path fill="none" stroke="black" d="M126.85,-142.8C119.37,-142.8 111.07,-142.8 103.05,-142.8"/>
<polygon fill="black" stroke="black" points="103.15,-139.3 93.15,-142.8 103.15,-146.3 103.15,-139.3"/>
</g>
<!-- track_8 -->
<g id="node9" class="node">
<title>track_8</title>
<polygon fill="none" stroke="black" points="181.23,-214.8 127.23,-214.8 127.23,-178.8 181.23,-178.8 181.23,-214.8"/>
<text text-anchor="middle" x="123.73" y="-166.2" font-family="Times,serif" font-size="14.00">8</text>
</g>
<!-- track_7&#45;&gt;track_8 -->
<!-- track_12 -->
<g id="node13" class="node">
<title>track_12</title>
<polygon fill="none" stroke="black" points="271.23,-160.8 217.23,-160.8 217.23,-124.8 271.23,-124.8 271.23,-160.8"/>
<text text-anchor="middle" x="210.23" y="-112.2" font-family="Times,serif" font-size="14.00">12</text>
</g>
<!-- track_7&#45;&gt;track_12 -->
<!-- track_8&#45;&gt;track_3 -->
<g id="edge24" class="edge">
<title>track_8-&gt;track_3</title>
<path fill="none" stroke="black" d="M126.85,-196.8C119.37,-196.8 111.07,-196.8 103.05,-196.8"/>
<polygon fill="black" stroke="black" points="103.15,-193.3 93.15,-196.8 103.15,-200.3 103.15,-193.3"/>
</g>
<!-- track_8&#45;&gt;track_9 -->
<!-- track_13 -->
<g id="node14" class="node">
<title>track_13</title>
<polygon fill="none" stroke="black" points="271.23,-214.8 217.23,-214.8 217.23,-178.8 271.23,-178.8 271.23,-214.8"/>
<text text-anchor="start" x="236.46" y="-193.6" font-family="Times,serif" font-size="14.00" fill="orange">T</text>
<text text-anchor="start" x="245.01" y="-193.6" font-family="Times,serif" baseline-shift="sub" font-size="14.00" fill="orange">7</text>
<text text-anchor="middle" x="210.23" y="-166.2" font-family="Times,serif" font-size="14.00" fill="orange">13</text>
</g>
<!-- track_8&#45;&gt;track_13 -->
<!-- track_9&#45;&gt;track_4 -->
<g id="edge25" class="edge">
<title>track_9:w-&gt;track_4:e</title>
<path fill="none" stroke="black" stroke-dasharray="1,5" d="M126.23,-250.8C115.61,-250.8 110.59,-250.8 103.29,-250.8"/>
<polygon fill="black" stroke="black" points="103.75,-247.3 93.75,-250.8 103.75,-254.3 103.75,-247.3"/>
</g>
<!-- track_9&#45;&gt;track_8 -->
<g id="edge10" class="edge">
<title>track_9:s-&gt;track_8:n</title>
<path fill="none" stroke="black" d="M154.23,-226.19C154.23,-228.01 154.23,-230.05 154.23,-232.8"/>
<polygon fill="black" stroke="black" points="157.73,-226.31 154.23,-216.31 150.73,-226.31 157.73,-226.31"/>
</g>
<!-- track_14 -->
<g id="node15" class="node">
<title>track_14</title>
<polygon fill="none" stroke="black" points="271.23,-268.8 217.23,-268.8 217.23,-232.8 271.23,-232.8 271.23,-268.8"/>
<text text-anchor="middle" x="210.23" y="-220.2" font-family="Times,serif" font-size="14.00">14</text>
</g>
<!-- track_9&#45;&gt;track_14 -->
<!-- track_10&#45;&gt;track_11 -->
<g id="edge11" class="edge">
<title>track_10-&gt;track_11</title>
<path fill="none" stroke="black" stroke-dasharray="1,5" d="M244.23,-52.94C244.23,-54.93 244.23,-56.92 244.23,-58.91"/>
<polygon fill="black" stroke="black" points="240.73,-58.8 244.23,-68.8 247.73,-58.8 240.73,-58.8"/>
</g>
<!-- track_15 -->
<g id="node16" class="node">
<title>track_15</title>
<polygon fill="none" stroke="black" points="361.23,-52.8 307.23,-52.8 307.23,-16.8 361.23,-16.8 361.23,-52.8"/>
<text text-anchor="middle" x="300.23" y="-4.2" font-family="Times,serif" font-size="14.00">15</text>
</g>
<!-- track_10&#45;&gt;track_15 -->
<g id="edge21" class="edge">
<title>track_10-&gt;track_15</title>
<path fill="none" stroke="black" d="M271.64,-34.8C279.12,-34.8 287.42,-34.8 295.43,-34.8"/>
<polygon fill="black" stroke="black" points="295.34,-38.3 305.34,-34.8 295.34,-31.3 295.34,-38.3"/>
</g>
<!-- track_11&#45;&gt;track_6 -->
<g id="edge27" class="edge">
<title>track_11-&gt;track_6</title>
<path fill="none" stroke="black" stroke-dasharray="1,5" d="M216.85,-88.8C209.37,-88.8 201.07,-88.8 193.05,-88.8"/>
<polygon fill="black" stroke="black" points="193.15,-85.3 183.15,-88.8 193.15,-92.3 193.15,-85.3"/>
</g>
<!-- track_11&#45;&gt;track_12 -->
<g id="edge12" class="edge">
<title>track_11-&gt;track_12</title>
<path fill="none" stroke="black" d="M244.23,-106.94C244.23,-108.93 244.23,-110.92 244.23,-112.91"/>
<polygon fill="black" stroke="black" points="240.73,-112.8 244.23,-122.8 247.73,-112.8 240.73,-112.8"/>
</g>
<!-- track_16 -->
<g id="node17" class="node">
<title>track_16</title>
<polygon fill="none" stroke="black" points="361.23,-106.8 307.23,-106.8 307.23,-70.8 361.23,-70.8 361.23,-106.8"/>
<text text-anchor="start" x="326.46" y="-85.6" font-family="Times,serif" font-size="14.00" fill="orange">T</text>
<text text-anchor="start" x="335.01" y="-85.6" font-family="Times,serif" baseline-shift="sub" font-size="14.00" fill="orange">8</text>
<text text-anchor="middle" x="300.23" y="-58.2" font-family="Times,serif" font-size="14.00" fill="orange">16</text>
</g>
<!-- track_11&#45;&gt;track_16 -->
<g id="edge36" class="edge">
<title>track_11-&gt;track_16</title>
<path fill="none" stroke="black" stroke-dasharray="1,5" d="M271.64,-82.55C279.12,-82.1 287.42,-81.95 295.43,-82.11"/>
<polygon fill="black" stroke="black" points="295.21,-85.6 305.34,-82.5 295.48,-78.61 295.21,-85.6"/>
</g>
<!-- track_12&#45;&gt;track_7 -->
<g id="edge28" class="edge">
<title>track_12:w-&gt;track_7:e</title>
<path fill="none" stroke="black" d="M216.23,-142.8C205.61,-142.8 200.59,-142.8 193.29,-142.8"/>
<polygon fill="black" stroke="black" points="193.75,-139.3 183.75,-142.8 193.75,-146.3 193.75,-139.3"/>
</g>
<!-- track_12&#45;&gt;track_13 -->
<g id="edge13" class="edge">
<title>track_12-&gt;track_13</title>
<path fill="none" stroke="black" stroke-dasharray="1,5" d="M244.23,-160.94C244.23,-162.93 244.23,-164.92 244.23,-166.91"/>
<polygon fill="black" stroke="black" points="240.73,-166.8 244.23,-176.8 247.73,-166.8 240.73,-166.8"/>
</g>
<!-- track_17 -->
<g id="node18" class="node">
<title>track_17</title>
<polygon fill="none" stroke="black" points="361.23,-160.8 307.23,-160.8 307.23,-124.8 361.23,-124.8 361.23,-160.8"/>
<text text-anchor="middle" x="300.23" y="-112.2" font-family="Times,serif" font-size="14.00">17</text>
</g>
<!-- track_12&#45;&gt;track_17 -->
<g id="edge37" class="edge">
<title>track_12-&gt;track_17</title>
<path fill="none" stroke="black" stroke-dasharray="1,5" d="M271.64,-142.8C279.12,-142.8 287.42,-142.8 295.43,-142.8"/>
<polygon fill="black" stroke="black" points="295.34,-146.3 305.34,-142.8 295.34,-139.3 295.34,-146.3"/>
</g>
<!-- track_13&#45;&gt;track_8 -->
<g id="edge29" class="edge">
<title>track_13:w-&gt;track_8:e</title>
<path fill="none" stroke="black" d="M216.23,-196.8C205.61,-196.8 200.59,-196.8 193.29,-196.8"/>
<polygon fill="black" stroke="black" points="193.75,-193.3 183.75,-196.8 193.75,-200.3 193.75,-193.3"/>
</g>
<!-- track_13&#45;&gt;track_14 -->
<!-- track_14&#45;&gt;track_9 -->
<g id="edge30" class="edge">
<title>track_14:w-&gt;track_9:e</title>
<path fill="none" stroke="black" d="M216.23,-250.8C205.61,-250.8 200.59,-250.8 193.29,-250.8"/>
<polygon fill="black" stroke="black" points="193.75,-247.3 183.75,-250.8 193.75,-254.3 193.75,-247.3"/>
</g>
<!-- track_15&#45;&gt;track_16 -->
<g id="edge15" class="edge">
<title>track_15-&gt;track_16</title>
<path fill="none" stroke="black" d="M334.23,-52.94C334.23,-54.93 334.23,-56.92 334.23,-58.91"/>
<polygon fill="black" stroke="black" points="330.73,-58.8 334.23,-68.8 337.73,-58.8 330.73,-58.8"/>
</g>
<!-- track_16&#45;&gt;track_11 -->
<g id="edge35" class="edge">
<title>track_16-&gt;track_11</title>
<path fill="none" stroke="black" stroke-dasharray="1,5" d="M306.85,-95.04C299.37,-95.5 291.07,-95.65 283.05,-95.49"/>
<polygon fill="black" stroke="black" points="283.28,-92 273.15,-95.1 283,-98.99 283.28,-92"/>
</g>
<!-- track_16&#45;&gt;track_17 -->
<g id="edge16" class="edge">
<title>track_16-&gt;track_17</title>
<path fill="none" stroke="black" d="M334.23,-106.94C334.23,-108.93 334.23,-110.92 334.23,-112.91"/>
<polygon fill="black" stroke="black" points="330.73,-112.8 334.23,-122.8 337.73,-112.8 330.73,-112.8"/>
</g>
<!-- track_18 -->
<g id="node19" class="node">
<title>track_18</title>
<polygon fill="none" stroke="black" points="361.23,-214.8 307.23,-214.8 307.23,-178.8 361.23,-178.8 361.23,-214.8"/>
<text text-anchor="middle" x="300.23" y="-166.2" font-family="Times,serif" font-size="14.00">18</text>
</g>
<!-- track_17&#45;&gt;track_18 -->
<g id="edge17" class="edge">
<title>track_17-&gt;track_18</title>
<path fill="none" stroke="black" d="M334.23,-160.94C334.23,-162.93 334.23,-164.92 334.23,-166.91"/>
<polygon fill="black" stroke="black" points="330.73,-166.8 334.23,-176.8 337.73,-166.8 330.73,-166.8"/>
</g>
<!-- track_19 -->
<g id="node20" class="node">
<title>track_19</title>
<polygon fill="none" stroke="black" points="361.23,-268.8 307.23,-268.8 307.23,-232.8 361.23,-232.8 361.23,-268.8"/>
<text text-anchor="middle" x="300.23" y="-220.2" font-family="Times,serif" font-size="14.00">19</text>
</g>
<!-- track_18&#45;&gt;track_19 -->
<g id="edge18" class="edge">
<title>track_18-&gt;track_19</title>
<path fill="none" stroke="black" d="M334.23,-214.94C334.23,-216.93 334.23,-218.92 334.23,-220.91"/>
<polygon fill="black" stroke="black" points="330.73,-220.8 334.23,-230.8 337.73,-220.8 330.73,-220.8"/>
</g>
<!-- track_19&#45;&gt;track_14 -->
<g id="edge38" class="edge">
<title>track_19-&gt;track_14</title>
<path fill="none" stroke="black" d="M306.85,-250.8C299.37,-250.8 291.07,-250.8 283.05,-250.8"/>
<polygon fill="black" stroke="black" points="283.15,-247.3 273.15,-250.8 283.15,-254.3 283.15,-247.3"/>
</g>
</g>
</svg>