<svg xmlns="http://www.w3.org/2000/svg" xmlns:xlink="http://www.w3.org/1999/xlink" width="519pt" height="115pt" viewBox="0.00 0.00 519.00 114.80">
<g id="graph0" class="graph" transform="scale(1 1) rotate(0) translate(4 110.8)">
<title>G</title>
<polygon fill="white" stroke="none" points="-4,4 -4,-110.8 515,-110.8 515,4 -4,4"/>
<!-- track_0 -->
<g id="node1" class="node">
<title>track_0</title>
<polygon fill="none" stroke="black" points="61,-79.8 7,-79.8 7,-43.8 61,-43.8 61,-79.8"/>
<text text-anchor="middle" x="34" y="-57.6" font-family="Times,serif" font-size="14.00" fill="lightgreen">S</text>
<text text-anchor="middle" x="3.5" y="-31.2" font-family="Times,serif" font-size="14.00" fill="lightgreen">0</text>
</g>
<!-- track_1 -->
<g id="node2" class="node">
<title>track_1</title>
<polygon fill="none" stroke="black" points="151,-79.8 97,-79.8 97,-43.8 151,-43.8 151,-79.8"/>
<text text-anchor="middle" x="93.5" y="-31.2" font-family="Times,serif" font-size="14.00">1</text>
</g>
<!-- track_0&#45;&gt;track_1 -->
<g id="edge1" class="edge">
<title>track_0-&gt;track_1</title>
<path fill="none" stroke="black" d="M61.4,-61.8C68.89,-61.8 77.18,-61.8 85.2,-61.8"/>
<polygon fill="black" stroke="black" points="85.1,-65.3 95.1,-61.8 85.1,-58.3 85.1,-65.3"/>
</g>
<!-- track_2 -->
<g id="node3" class="node">
<title>track_2</title>
<polygon fill="none" stroke="black" points="241,-106.8 187,-106.8 187,-70.8 241,-70.8 241,-106.8"/>
<text text-anchor="start" x="206.22" y="-85.6" font-family="Times,serif" font-size="14.00" fill="orange">T</text>
<text text-anchor="start" x="214.78" y="-85.6" font-family="Times,serif" baseline-shift="sub" font-size="14.00" fill="orange">1</text>
<text text-anchor="middle" x="183.5" y="-58.2" font-family="Times,serif" font-size="14.00" fill="orange">2</text>
</g>
<!-- track_1&#45;&gt;track_2 -->
<g id="edge2" class="edge">
<title>track_1-&gt;track_2</title>
<path fill="none" stroke="black" d="M151.4,-69.9C159.06,-72.25 167.57,-74.86 175.76,-77.37"/>
<polygon fill="black" stroke="black" points="174.58,-80.67 185.17,-80.26 176.64,-73.98 174.58,-80.67"/>
</g>
<!-- track_3 -->
<g id="node4" class="node">
<title>track_3</title>
<polygon fill="none" stroke="black" points="241,-52.8 187,-52.8 187,-16.8 241,-16.8 241,-52.8"/>
<text text-anchor="middle" x="183.5" y="-4.2" font-family="Times,serif" font-size="14.00">3</text>
</g>
<!-- track_1&#45;&gt;track_3 -->
<g id="edge3" class="edge">
<title>track_1-&gt;track_3</title>
<path fill="none" stroke="black" stroke-dasharray="1,5" d="M151.4,-53.7C159.06,-51.35 167.57,-48.74 175.76,-46.23"/>
<polygon fill="black" stroke="black" points="176.64,-49.62 185.17,-43.34 174.58,-42.93 176.64,-49.62"/>
</g>
<!-- track_4 -->
<g id="node5" class="node">
<title>track_4</title>
<polygon fill="none" stroke="black" points="331,-106.8 277,-106.8 277,-70.8 331,-70.8 331,-106.8"/>
<text text-anchor="start" x="296.22" y="-85.6" font-family="Times,serif" font-size="14.00" fill="orange">T</text>
<text text-anchor="start" x="304.78" y="-85.6" font-family="Times,serif" baseline-shift="sub" font-size="14.00" fill="orange">2</text>
<text text-anchor="middle" x="273.5" y="-58.2" font-family="Times,serif" font-size="14.00" fill="orange">4</text>
</g>
<!-- track_2&#45;&gt;track_4 -->
<g id="edge4" class="edge">
<title>track_2-&gt;track_4</title>
<path fill="none" stroke="black" d="M241.4,-88.8C248.89,-88.8 257.18,-88.8 265.2,-88.8"/>
<polygon fill="black" stroke="black" points="265.1,-92.3 275.1,-88.8 265.1,-85.3 265.1,-92.3"/>
</g>
<!-- track_3&#45;&gt;track_4 -->
<g id="edge5" class="edge">
<title>track_3-&gt;track_4</title>
<path fill="none" stroke="black" stroke-dasharray="1,5" d="M241.4,-51C249.41,-55.91 258.34,-61.4 266.87,-66.63"/>
<polygon fill="black" stroke="black" points="264.97,-69.57 275.33,-71.82 268.63,-63.6 264.97,-69.57"/>
</g>
<!-- track_8 -->
<g id="node9" class="node">
<title>track_8</title>
<polygon fill="none" stroke="black" points="331,-52.8 277,-52.8 277,-16.8 331,-16.8 331,-52.8"/>
<text text-anchor="middle" x="273.5" y="-4.2" font-family="Times,serif" font-size="14.00">8</text>
</g>
<!-- track_3&#45;&gt;track_8 -->
<g id="edge6" class="edge">
<title>track_3-&gt;track_8</title>
<path fill="none" stroke="black" d="M241.4,-34.8C248.89,-34.8 257.18,-34.8 265.2,-34.8"/>
<polygon fill="black" stroke="black" points="265.1,-38.3 275.1,-34.8 265.1,-31.3 265.1,-38.3"/>
</g>
<!-- track_5 -->
<g id="node6" class="node">
<title>track_5</title>
<polygon fill="none" stroke="black" points="421,-106.8 367,-106.8 367,-70.8 421,-70.8 421,-106.8"/>
<text text-anchor="start" x="386.22" y="-85.6" font-family="Times,serif" font-size="14.00" fill="orange">T</text>
<text text-anchor="start" x="394.78" y="-85.6" font-family="Times,serif" baseline-shift="sub" font-size="14.00" fill="orange">3</text>
<text text-anchor="middle" x="356.69" y="-58.2" font-family="Times,serif" font-size="14.00" fill="orange">5,G</text>
</g>
<!-- track_4&#45;&gt;track_5 -->
<g id="edge9" class="edge">
<title>track_4-&gt;track_5</title>
<path fill="none" stroke="black" d="M331.4,-88.8C338.89,-88.8 347.18,-88.8 355.2,-88.8"/>
<polygon fill="black" stroke="black" points="355.1,-92.3 365.1,-88.8 355.1,-85.3 355.1,-92.3"/>
</g>
<!-- track_6 -->
<g id="node7" class="node">
<title>track_6</title>
<polygon fill="none" stroke="black" points="511,-106.8 457,-106.8 457,-70.8 511,-70.8 511,-106.8"/>
<text text-anchor="middle" x="453.5" y="-58.2" font-family="Times,serif" font-size="14.00">6</text>
</g>
<!-- track_5&#45;&gt;track_6 -->
<g id="edge10" class="edge">
<title>track_5-&gt;track_6</title>
<path fill="none" stroke="black" d="M421.4,-88.8C428.89,-88.8 437.18,-88.8 445.2,-88.8"/>
<polygon fill="black" stroke="black" points="445.1,-92.3 455.1,-88.8 445.1,-85.3 445.1,-92.3"/>
</g>
<!-- track_7 -->
<g id="node8" class="node">
<title>track_7</title>
<polygon fill="none" stroke="black" points="421,-52.8 367,-52.8 367,-16.8 421,-16.8 421,-52.8"/>
<text text-anchor="middle" x="363.5" y="-4.2" font-family="Times,serif" font-size="14.00">7</text>
</g>
<!-- track_8&#45;&gt;track_5 -->
<g id="edge8" class="edge">
<title>track_8-&gt;track_5</title>
<path fill="none" stroke="black" stroke-dasharray="1,5" d="M331.4,-51C339.41,-55.91 348.34,-61.4 356.87,-66.63"/>
<polygon fill="black" stroke="black" points="354.97,-69.57 365.33,-71.82 358.63,-63.6 354.97,-69.57"/>
</g>
<!-- track_8&#45;&gt;track_7 -->
<g id="edge7" class="edge">
<title>track_8-&gt;track_7</title>
<path fill="none" stroke="black" d="M331.4,-34.8C338.89,-34.8 347.18,-34.8 355.2,-34.8"/>
<polygon fill="black" stroke="black" points="355.1,-38.3 365.1,-34.8 355.1,-31.3 355.1,-38.3"/>
</g>
</g>
</svg>